<?xml version="1.0" encoding="utf-8"?>
<!-- Generator: Adobe Illustrator 20.1.0, SVG Export Plug-In . SVG Version: 6.00 Build 0)  -->
<svg version="1.1" id="layer_1" xmlns="http://www.w3.org/2000/svg" xmlns:xlink="http://www.w3.org/1999/xlink" x="0px" y="0px"
	 viewBox="0 0 114 57" style="enable-background:new 0 0 114 57;" xml:space="preserve">
<style type="text/css">
	.st0{fill:url(#SVGID_1_);}
	.st1{fill:url(#SVGID_2_);}
	.st2{fill:url(#SVGID_3_);}
	.st3{fill:url(#SVGID_4_);}
</style>
<g>
	<g>
		<g>
			<g>
				<g>
					
						<linearGradient id="SVGID_1_" gradientUnits="userSpaceOnUse" x1="11.3271" y1="46.4187" x2="11.3271" y2="11.6787" gradientTransform="matrix(1 0 0 -1 0 58)">
						<stop  offset="0" style="stop-color:#0B1211"/>
						<stop  offset="1" style="stop-color:#101B1A"/>
					</linearGradient>
					<path class="st0" d="M2,18.2c-0.1,0-0.3-0.1-0.5-0.3c-0.2-0.2-0.3-0.4-0.5-0.6c-0.1-0.2-0.3-0.4-0.4-0.7
						c-0.1-0.2-0.1-0.4-0.1-0.6c0.1-1.2,0.5-2.2,1.2-2.8c0.7-0.6,1.5-1,2.4-1.3C5,11.7,6,11.6,7,11.6c1,0,1.8,0,2.5,0
						c1.1,0,2.2,0.1,3.2,0.2c1,0.1,1.8,0.4,2.5,0.9c0.7,0.5,1.3,1.1,1.7,2c0.4,0.9,0.6,2,0.6,3.5c0,0.7,0,1.4-0.1,2
						c0,0.6-0.1,1.1-0.3,1.7c-0.1,0.5-0.3,1.1-0.6,1.7c-0.3,0.6-0.6,1.3-1,2.1c1.3,0.5,2.4,0.9,3.3,1.4c0.9,0.4,1.6,1,2.1,1.6
						c0.5,0.6,0.8,1.4,1,2.2c0.2,0.9,0.3,2,0.3,3.4c0,1.6-0.3,3.2-0.9,4.7c-0.6,1.5-1.4,2.7-2.5,3.8c-1,1.1-2.2,1.9-3.6,2.6
						c-1.4,0.6-2.8,0.9-4.4,0.9c-0.3,0-0.8-0.1-1.3-0.2c-0.6-0.1-1.2-0.3-1.8-0.5c-0.7-0.2-1.3-0.4-2-0.7C5,44.6,4.4,44.3,3.8,44
						c-0.6-0.3-1-0.7-1.3-1c-0.3-0.3-0.5-0.7-0.5-1V18.2 M5.2,31.1C5.3,32,5.2,33,5.1,34c-0.1,1-0.2,1.9-0.3,2.8
						c-0.1,0.9-0.1,1.8-0.1,2.6c0,0.8,0.2,1.5,0.6,2.2s0.9,1.2,1.8,1.7c0.8,0.5,1.9,0.8,3.4,1c1.2,0,2.4-0.3,3.6-0.8
						s2.2-1.2,3.2-2.1c0.9-0.9,1.7-1.9,2.3-3.1c0.6-1.2,0.9-2.6,0.9-4c0-1-0.1-1.8-0.4-2.5c-0.3-0.7-0.7-1.2-1.2-1.7
						c-0.5-0.4-1.1-0.7-1.7-0.9c-0.7-0.2-1.4-0.3-2.1-0.3c-0.9,0-1.8,0-2.5,0.1c-0.7,0.1-1.5,0.2-2.2,0.3c-0.7,0.2-1.5,0.4-2.2,0.7
						C7,30.3,6.2,30.7,5.2,31.1 M4.2,25.3c0,0.3,0,0.6,0,0.9c0,0.3,0.1,0.6,0.2,0.8c0.1,0.2,0.2,0.4,0.4,0.6
						c0.2,0.2,0.5,0.3,0.8,0.3c1.1,0,2.2-0.2,3.4-0.7s2.2-1.2,3.2-2c1-0.9,1.8-1.9,2.4-3.1c0.6-1.2,1-2.5,1-4c0-0.1,0-0.4-0.1-0.6
						c-0.1-0.3-0.2-0.6-0.4-0.9c-0.2-0.3-0.6-0.6-1-0.9s-1.1-0.5-1.8-0.7s-1.7-0.3-2.9-0.3c-1.1,0-2.5,0-4.2,0.2
						C5.1,15,5.1,15.3,5,15.7c-0.1,0.4-0.2,0.9-0.2,1.5c-0.1,0.6-0.1,1.3-0.2,2c0,0.7-0.1,1.5-0.1,2.2s-0.1,1.4-0.1,2.1
						C4.2,24.2,4.2,24.8,4.2,25.3L4.2,25.3z"/>
					
						<linearGradient id="SVGID_2_" gradientUnits="userSpaceOnUse" x1="43.3324" y1="46.4186" x2="43.3324" y2="11.6787" gradientTransform="matrix(1 0 0 -1 0 58)">
						<stop  offset="0" style="stop-color:#0B1211"/>
						<stop  offset="1" style="stop-color:#101B1A"/>
					</linearGradient>
					<path class="st1" d="M41,42.9c-0.9,0.6-1.7,0.9-2.4,1c-0.7,0.1-1.5,0.2-2.4,0.2c-0.4,0-0.8,0-1.2-0.1s-0.8-0.2-1.2-0.4
						c-0.4-0.2-0.7-0.5-0.9-0.8c-0.2-0.4-0.4-0.9-0.4-1.5c0-0.4,0.3-0.6,1-0.8c0.7-0.1,1.5-0.3,2.5-0.5c1-0.2,2.1-0.5,3.2-0.9
						c1.2-0.4,2.2-1.1,3.2-2c1-0.9,1.8-2.2,2.5-3.8c0.7-1.6,1-3.7,1-6.2c0-1.1-0.1-2.2-0.2-3.4c-0.2-1.2-0.5-2.3-0.9-3.2
						c-0.4-1-1-1.8-1.8-2.4c-0.8-0.7-1.8-1-3-1c-0.5,0-0.9,0.1-1.3,0.4c-0.4,0.3-0.7,0.6-1.1,0.9c-0.3,0.4-0.6,0.8-0.9,1.2
						c-0.3,0.4-0.6,0.9-1,1.2c-0.3,0.4-0.7,0.7-1.1,0.9c-0.4,0.2-0.9,0.4-1.5,0.4c0-1,0.2-2,0.6-2.8c0.4-0.9,0.9-1.6,1.6-2.3
						c0.7-0.7,1.4-1.2,2.2-1.5c0.8-0.4,1.7-0.6,2.5-0.6c1.3,0,2.5,0.4,3.5,1.1s2,1.7,2.7,2.9c0.7,1.2,1.3,2.4,1.7,3.9
						c0.4,1.4,0.6,2.8,0.6,4.1c0,1.3-0.2,2.6-0.5,3.9c-0.3,1.3-0.8,2.5-1.3,3.7c-0.5,1.2-1.1,2.3-1.8,3.4s-1.4,2.1-2.1,3
						c0.7,0.7,1.6,1.3,2.5,1.7s1.9,0.7,3,1c1,0.2,2,0.4,3,0.5c1,0.1,1.9,0.1,2.8,0.1c0,0,0.1,0.1,0.1,0.3s0,0.2,0,0.3
						c0,0.4-0.1,0.7-0.4,1c-0.3,0.2-0.6,0.4-0.9,0.5c-0.4,0.1-0.7,0.2-1.1,0.2c-0.4,0-0.7,0-1,0c-0.9,0-1.7-0.1-2.5-0.3
						c-0.8-0.2-1.6-0.4-2.3-0.8c-0.8-0.3-1.6-0.7-2.4-1.1C42.8,43.8,41.9,43.4,41,42.9 M38.2,41.9c0.1-0.2,0-0.3-0.2-0.4
						c-0.2-0.1-0.4-0.1-0.7-0.1c-0.3,0-0.5,0-0.7,0.1c-0.2,0.1-0.3,0.2-0.2,0.4c0.1,0.1,0.2,0.3,0.4,0.3c0.2,0.1,0.4,0.1,0.6,0.1
						s0.4,0,0.5-0.1C38,42.2,38.1,42.1,38.2,41.9z"/>
					
						<linearGradient id="SVGID_3_" gradientUnits="userSpaceOnUse" x1="73.4794" y1="46.4186" x2="73.4794" y2="11.6787" gradientTransform="matrix(1 0 0 -1 0 58)">
						<stop  offset="0" style="stop-color:#0B1211"/>
						<stop  offset="1" style="stop-color:#101B1A"/>
					</linearGradient>
					<path class="st2" d="M65.2,44.1c0.6-0.1,1.1-0.3,1.4-0.3c0.3-0.1,0.6-0.1,0.8-0.1c0.2,0,0.4-0.1,0.6-0.1c0.2,0,0.4,0,0.6-0.1
						c0.3,0,0.6-0.1,1.1-0.2c0.4-0.1,1.1-0.2,1.9-0.4c0.3-1,0.5-2.2,0.7-3.5c0.2-1.3,0.3-2.8,0.4-4.3s0.2-3.1,0.2-4.7
						c0-1.6,0.1-3.2,0.1-4.8c0-1.6,0.1-3.1,0.1-4.6c0.1-1.5,0.2-2.8,0.3-4c0,0-0.1,0-0.2,0c-0.1,0-0.2,0-0.2,0c-0.7,0-1.3,0.2-2,0.5
						c-0.6,0.3-1.3,0.7-1.9,1.1c-0.6,0.4-1.2,0.8-1.9,1.1c-0.6,0.3-1.3,0.5-2,0.5L65,18.2c0,0,0.2-0.1,0.6-0.3
						c0.4-0.2,0.9-0.5,1.5-0.8s1.3-0.6,2.1-1c0.8-0.4,1.5-0.7,2.3-1c0.7-0.3,1.5-0.6,2.1-0.9c0.7-0.3,1.2-0.4,1.7-0.6v28.3
						c0.3,0.3,0.7,0.5,1.3,0.6c0.6,0.1,1.2,0.1,1.8,0c0.6,0,1.3-0.1,1.9-0.1c0.6,0,1.2,0,1.6,0.1l0,2.3c-1.3,0-2.7,0.1-4,0.2
						c-1.3,0.1-2.6,0.3-3.9,0.5c-1.3,0.2-2.6,0.3-3.9,0.5c-1.3,0.1-2.6,0.2-3.8,0.2c-0.4,0-0.6-0.2-0.7-0.7
						C65.6,45.1,65.4,44.7,65.2,44.1L65.2,44.1z"/>
					
						<linearGradient id="SVGID_4_" gradientUnits="userSpaceOnUse" x1="102.5995" y1="46.4186" x2="102.5995" y2="11.6787" gradientTransform="matrix(1 0 0 -1 0 58)">
						<stop  offset="0" style="stop-color:#0B1211"/>
						<stop  offset="1" style="stop-color:#101B1A"/>
					</linearGradient>
					<path class="st3" d="M100.3,42.9c-0.9,0.6-1.7,0.9-2.4,1c-0.7,0.1-1.5,0.2-2.4,0.2c-0.4,0-0.8,0-1.2-0.1
						c-0.4-0.1-0.8-0.2-1.2-0.4c-0.4-0.2-0.7-0.5-0.9-0.8c-0.2-0.4-0.4-0.9-0.4-1.5c0-0.4,0.3-0.6,1-0.8c0.7-0.1,1.5-0.3,2.5-0.5
						c1-0.2,2.1-0.5,3.2-0.9c1.2-0.4,2.2-1.1,3.2-2c1-0.9,1.8-2.2,2.5-3.8c0.7-1.6,1-3.7,1-6.2c0-1.1-0.1-2.2-0.2-3.4
						c-0.2-1.2-0.5-2.3-0.9-3.2c-0.4-1-1-1.8-1.8-2.4c-0.8-0.7-1.8-1-3-1c-0.5,0-0.9,0.1-1.3,0.4c-0.4,0.3-0.7,0.6-1.1,0.9
						c-0.3,0.4-0.6,0.8-0.9,1.2c-0.3,0.4-0.6,0.9-1,1.2c-0.3,0.4-0.7,0.7-1.1,0.9c-0.4,0.2-0.9,0.4-1.5,0.4c0-1,0.2-2,0.6-2.8
						c0.4-0.9,0.9-1.6,1.6-2.3c0.7-0.7,1.4-1.2,2.2-1.5c0.8-0.4,1.7-0.6,2.5-0.6c1.3,0,2.5,0.4,3.5,1.1s2,1.7,2.7,2.9
						c0.7,1.2,1.3,2.4,1.7,3.9c0.4,1.4,0.6,2.8,0.6,4.1c0,1.3-0.2,2.6-0.5,3.9c-0.3,1.3-0.8,2.5-1.3,3.7c-0.5,1.2-1.1,2.3-1.8,3.4
						s-1.4,2.1-2.1,3c0.7,0.7,1.6,1.3,2.5,1.7s1.9,0.7,3,1c1,0.2,2,0.4,3,0.5c1,0.1,1.9,0.1,2.8,0.1c0,0,0.1,0.1,0.1,0.3
						c0,0.1,0,0.2,0,0.3c0,0.4-0.1,0.7-0.4,1c-0.3,0.2-0.6,0.4-0.9,0.5c-0.4,0.1-0.7,0.2-1.1,0.2c-0.4,0-0.7,0-1,0
						c-0.9,0-1.7-0.1-2.5-0.3s-1.6-0.4-2.3-0.8s-1.6-0.7-2.4-1.1C102,43.8,101.2,43.4,100.3,42.9 M97.5,41.9c0.1-0.2,0-0.3-0.2-0.4
						c-0.2-0.1-0.4-0.1-0.7-0.1c-0.3,0-0.5,0-0.7,0.1c-0.2,0.1-0.3,0.2-0.2,0.4c0.1,0.1,0.2,0.3,0.4,0.3c0.2,0.1,0.4,0.1,0.6,0.1
						s0.4,0,0.5-0.1C97.2,42.2,97.4,42.1,97.5,41.9L97.5,41.9z"/>
				</g>
			</g>
		</g>
	</g>
</g>
</svg>
