<?xml version="1.0" encoding="utf-8"?>
<!-- Generator: Adobe Illustrator 20.1.0, SVG Export Plug-In . SVG Version: 6.00 Build 0)  -->
<svg version="1.1" id="layer_1" xmlns="http://www.w3.org/2000/svg" xmlns:xlink="http://www.w3.org/1999/xlink" x="0px" y="0px"
	 viewBox="0 0 150 150" style="enable-background:new 0 0 150 150;" xml:space="preserve">
<style type="text/css">
	.st0{fill:url(#SVGID_1_);}
	.st1{fill:url(#SVGID_2_);}
	.st2{fill:url(#SVGID_3_);}
	.st3{fill:url(#SVGID_4_);}
</style>
<g>
	<g>
		<g>
			<g>
				<g>
					
						<linearGradient id="SVGID_1_" gradientUnits="userSpaceOnUse" x1="27.2225" y1="96.5451" x2="27.2225" y2="57.761" gradientTransform="matrix(1 0 0 -1 0 152)">
						<stop  offset="0" style="stop-color:#0B1211"/>
						<stop  offset="1" style="stop-color:#101B1A"/>
					</linearGradient>
					<path class="st0" d="M17.1,62.8c-0.1,0-0.3-0.2-0.5-0.4c-0.2-0.2-0.4-0.4-0.5-0.7c-0.2-0.3-0.3-0.5-0.4-0.8
						c-0.1-0.3-0.2-0.5-0.2-0.6c0.1-1.4,0.5-2.4,1.3-3.1c0.8-0.7,1.6-1.2,2.6-1.4s2-0.4,3.1-0.4c1.1,0,1.9,0,2.7,0
						c1.2,0,2.4,0.1,3.4,0.2c1,0.1,1.9,0.5,2.7,1c0.8,0.5,1.4,1.3,1.8,2.2c0.5,1,0.7,2.3,0.7,4c0,0.8,0,1.6-0.1,2.2
						s-0.1,1.3-0.3,1.9c-0.1,0.6-0.4,1.3-0.6,1.9c-0.3,0.7-0.6,1.5-1.1,2.4c1.4,0.5,2.6,1.1,3.6,1.5c0.9,0.5,1.7,1.1,2.2,1.8
						c0.5,0.7,0.9,1.5,1.1,2.5c0.2,1,0.3,2.2,0.3,3.8c0,1.8-0.3,3.6-1,5.2c-0.7,1.6-1.6,3.1-2.7,4.3s-2.4,2.2-3.9,2.9
						c-1.5,0.7-3,1-4.7,1c-0.4,0-0.8-0.1-1.4-0.2c-0.6-0.1-1.2-0.3-1.9-0.6c-0.7-0.2-1.4-0.5-2.2-0.8c-0.7-0.3-1.4-0.7-2-1
						c-0.6-0.4-1.1-0.8-1.4-1.1c-0.4-0.4-0.6-0.8-0.6-1.1V62.8 M20.6,77.3c0.1,1,0,2.1-0.1,3.1c-0.1,1.1-0.3,2.1-0.4,3.1
						c-0.1,1-0.1,2-0.1,2.9c0,0.9,0.2,1.7,0.6,2.4s1,1.3,1.9,1.9c0.9,0.5,2.1,0.9,3.6,1.1c1.3,0,2.6-0.3,3.9-0.8
						c1.3-0.6,2.4-1.3,3.4-2.3c1-1,1.8-2.2,2.4-3.5c0.6-1.4,0.9-2.9,0.9-4.5c0-1.1-0.2-2-0.5-2.8c-0.3-0.8-0.7-1.4-1.3-1.9
						c-0.5-0.5-1.1-0.8-1.9-1s-1.5-0.3-2.3-0.3c-1,0-1.9,0-2.7,0.1s-1.6,0.2-2.4,0.4c-0.8,0.2-1.6,0.5-2.4,0.8
						C22.6,76.3,21.7,76.8,20.6,77.3 M19.6,70.8c0,0.3,0,0.7,0.1,1c0,0.4,0.1,0.7,0.2,0.9s0.2,0.5,0.4,0.7c0.2,0.2,0.5,0.3,0.8,0.3
						c1.2,0,2.4-0.3,3.7-0.8c1.3-0.5,2.4-1.3,3.4-2.3c1-1,1.9-2.1,2.6-3.4c0.7-1.3,1-2.8,1-4.4c0-0.2,0-0.4-0.1-0.7
						c-0.1-0.3-0.2-0.6-0.5-1c-0.2-0.3-0.6-0.7-1.1-1c-0.5-0.3-1.1-0.6-2-0.8c-0.8-0.2-1.9-0.3-3.1-0.4c-1.2,0-2.7,0-4.5,0.3
						c-0.1,0.1-0.1,0.4-0.2,0.8c-0.1,0.5-0.2,1-0.3,1.7C20,62.5,20,63.2,19.9,64c-0.1,0.8-0.1,1.6-0.2,2.4c-0.1,0.8-0.1,1.6-0.1,2.4
						C19.6,69.6,19.6,70.2,19.6,70.8L19.6,70.8z"/>
					
						<linearGradient id="SVGID_2_" gradientUnits="userSpaceOnUse" x1="61.6735" y1="96.5451" x2="61.6735" y2="57.7609" gradientTransform="matrix(1 0 0 -1 0 152)">
						<stop  offset="0" style="stop-color:#0B1211"/>
						<stop  offset="1" style="stop-color:#101B1A"/>
					</linearGradient>
					<path class="st1" d="M59.1,90.5c-0.9,0.6-1.8,1-2.6,1.1c-0.8,0.1-1.6,0.2-2.6,0.2c-0.4,0-0.8,0-1.3-0.1s-0.9-0.2-1.3-0.4
						c-0.4-0.2-0.7-0.5-1-0.9c-0.3-0.4-0.4-1-0.4-1.7c0-0.4,0.4-0.7,1.1-0.9c0.7-0.2,1.6-0.4,2.7-0.6c1.1-0.2,2.2-0.6,3.5-1
						c1.2-0.5,2.4-1.2,3.5-2.2c1.1-1,2-2.4,2.7-4.2c0.7-1.8,1.1-4.1,1.1-7c0-1.2-0.1-2.5-0.3-3.8c-0.2-1.3-0.5-2.5-0.9-3.6
						c-0.5-1.1-1.1-2-1.9-2.7c-0.8-0.7-1.9-1.1-3.2-1.1c-0.5,0-1,0.1-1.4,0.4c-0.4,0.3-0.8,0.6-1.2,1c-0.4,0.4-0.7,0.8-1,1.3
						c-0.3,0.5-0.7,1-1,1.4c-0.4,0.4-0.8,0.8-1.2,1c-0.4,0.3-1,0.4-1.6,0.4c0-1.1,0.2-2.2,0.7-3.2c0.4-1,1-1.8,1.7-2.6
						c0.7-0.7,1.5-1.3,2.4-1.7c0.9-0.4,1.8-0.6,2.7-0.6c1.4,0,2.7,0.4,3.8,1.3c1.1,0.8,2.1,1.9,2.9,3.2c0.8,1.3,1.4,2.7,1.8,4.3
						s0.6,3.1,0.6,4.6c0,1.5-0.2,2.9-0.5,4.3c-0.4,1.4-0.8,2.8-1.4,4.1c-0.6,1.3-1.2,2.6-1.9,3.8c-0.7,1.2-1.5,2.3-2.2,3.4
						c0.8,0.8,1.7,1.4,2.7,1.9c1,0.5,2.1,0.8,3.2,1.1c1.1,0.3,2.2,0.4,3.2,0.5s2.1,0.2,3,0.2c0,0,0.1,0.1,0.1,0.3c0,0.1,0,0.2,0,0.3
						c0,0.5-0.1,0.8-0.4,1.1c-0.3,0.3-0.6,0.5-1,0.6c-0.4,0.1-0.8,0.2-1.2,0.2c-0.4,0-0.8,0-1.1,0c-0.9,0-1.8-0.1-2.7-0.3
						c-0.8-0.2-1.7-0.5-2.5-0.8c-0.8-0.4-1.7-0.8-2.6-1.2C61.1,91.4,60.1,91,59.1,90.5 M56.1,89.3c0.1-0.2,0-0.4-0.2-0.4
						c-0.2-0.1-0.5-0.1-0.8-0.1s-0.5,0-0.8,0.1c-0.2,0.1-0.3,0.2-0.3,0.4c0.1,0.2,0.3,0.3,0.4,0.4c0.2,0.1,0.4,0.1,0.6,0.1
						s0.4,0,0.6-0.1C55.9,89.6,56,89.5,56.1,89.3z"/>
					
						<linearGradient id="SVGID_3_" gradientUnits="userSpaceOnUse" x1="94.1242" y1="96.5451" x2="94.1242" y2="57.7609" gradientTransform="matrix(1 0 0 -1 0 152)">
						<stop  offset="0" style="stop-color:#0B1211"/>
						<stop  offset="1" style="stop-color:#101B1A"/>
					</linearGradient>
					<path class="st2" d="M85.2,91.8c0.7-0.2,1.2-0.3,1.5-0.3c0.4-0.1,0.6-0.1,0.9-0.2s0.4-0.1,0.6-0.1c0.2,0,0.4,0,0.7-0.1
						s0.7-0.1,1.1-0.2c0.5-0.1,1.1-0.3,2-0.5c0.3-1.1,0.6-2.4,0.7-3.9c0.2-1.5,0.3-3.1,0.4-4.8c0.1-1.7,0.2-3.4,0.2-5.2
						c0.1-1.8,0.1-3.6,0.1-5.3c0-1.8,0.1-3.5,0.2-5.1c0.1-1.7,0.2-3.1,0.3-4.5c0,0-0.1,0-0.2,0c-0.1,0-0.2,0-0.2,0
						c-0.7,0-1.4,0.2-2.1,0.6c-0.7,0.4-1.4,0.8-2,1.2c-0.7,0.4-1.3,0.8-2,1.2c-0.7,0.4-1.4,0.6-2.2,0.6L85,62.8c0,0,0.3-0.1,0.7-0.4
						c0.4-0.3,1-0.5,1.6-0.8c0.6-0.3,1.4-0.7,2.2-1.1c0.8-0.4,1.6-0.8,2.4-1.1s1.6-0.7,2.3-1c0.7-0.3,1.3-0.5,1.9-0.6v31.6
						c0.3,0.4,0.8,0.6,1.4,0.7c0.6,0.1,1.3,0.1,1.9,0c0.7,0,1.4-0.1,2.1-0.1c0.7,0,1.3,0,1.8,0.1l-0.1,2.6c-1.4,0-2.9,0.1-4.3,0.3
						c-1.4,0.2-2.8,0.3-4.2,0.5c-1.4,0.2-2.8,0.4-4.2,0.5c-1.4,0.2-2.8,0.3-4.1,0.3c-0.4,0-0.6-0.3-0.7-0.8
						C85.6,92.9,85.4,92.4,85.2,91.8L85.2,91.8z"/>
					
						<linearGradient id="SVGID_4_" gradientUnits="userSpaceOnUse" x1="125.4695" y1="96.5451" x2="125.4695" y2="57.7609" gradientTransform="matrix(1 0 0 -1 0 152)">
						<stop  offset="0" style="stop-color:#0B1211"/>
						<stop  offset="1" style="stop-color:#101B1A"/>
					</linearGradient>
					<path class="st3" d="M122.9,90.5c-0.9,0.6-1.8,1-2.6,1.1c-0.8,0.1-1.6,0.2-2.6,0.2c-0.4,0-0.8,0-1.3-0.1s-0.9-0.2-1.3-0.4
						c-0.4-0.2-0.7-0.5-1-0.9c-0.3-0.4-0.4-1-0.4-1.7c0-0.4,0.4-0.7,1.1-0.9c0.7-0.2,1.6-0.4,2.7-0.6c1.1-0.2,2.2-0.6,3.5-1
						c1.2-0.5,2.4-1.2,3.5-2.2c1.1-1,2-2.4,2.7-4.2c0.7-1.8,1.1-4.1,1.1-7c0-1.2-0.1-2.5-0.3-3.8c-0.2-1.3-0.5-2.5-0.9-3.6
						c-0.5-1.1-1.1-2-1.9-2.7c-0.8-0.7-1.9-1.1-3.2-1.1c-0.5,0-1,0.1-1.4,0.4c-0.4,0.3-0.8,0.6-1.2,1c-0.4,0.4-0.7,0.8-1,1.3
						c-0.3,0.5-0.7,1-1,1.4c-0.4,0.4-0.8,0.8-1.2,1c-0.4,0.3-1,0.4-1.6,0.4c0-1.1,0.2-2.2,0.7-3.2c0.4-1,1-1.8,1.7-2.6
						c0.7-0.7,1.5-1.3,2.4-1.7c0.9-0.4,1.8-0.6,2.7-0.6c1.4,0,2.7,0.4,3.8,1.3s2.1,1.9,2.9,3.2c0.8,1.3,1.4,2.7,1.8,4.3
						s0.6,3.1,0.6,4.6c0,1.5-0.2,2.9-0.5,4.3s-0.8,2.8-1.4,4.1c-0.6,1.3-1.2,2.6-1.9,3.8c-0.7,1.2-1.5,2.3-2.2,3.4
						c0.8,0.8,1.7,1.4,2.7,1.9c1,0.5,2.1,0.8,3.2,1.1s2.2,0.4,3.2,0.5c1.1,0.1,2.1,0.2,3,0.2c0,0,0.1,0.1,0.1,0.3c0,0.1,0,0.2,0,0.3
						c0,0.5-0.1,0.8-0.4,1.1c-0.3,0.3-0.6,0.5-1,0.6s-0.8,0.2-1.2,0.2s-0.8,0-1.1,0c-0.9,0-1.8-0.1-2.7-0.3
						c-0.8-0.2-1.7-0.5-2.5-0.8c-0.8-0.4-1.7-0.8-2.6-1.2C124.9,91.4,123.9,91,122.9,90.5 M119.9,89.3c0.1-0.2,0-0.4-0.2-0.4
						s-0.5-0.1-0.8-0.1c-0.3,0-0.5,0-0.8,0.1c-0.2,0.1-0.3,0.2-0.3,0.4c0.1,0.2,0.3,0.3,0.4,0.4c0.2,0.1,0.4,0.1,0.6,0.1
						s0.4,0,0.6-0.1C119.7,89.6,119.8,89.5,119.9,89.3L119.9,89.3z"/>
				</g>
			</g>
		</g>
	</g>
</g>
</svg>
